<svg width="110" height="28" viewBox="0 0 110 28" fill="none" xmlns="http://www.w3.org/2000/svg">
<path d="M6.408 16.2H16.92V18.36H6.192L6.408 16.2ZM11.016 3.168L11.808 4.32L4.968 24.48C4.968 24.624 5.1 24.756 5.364 24.876C5.628 24.972 5.964 25.044 6.372 25.092C6.78 25.14 7.212 25.164 7.668 25.164H8.208V27H0.288V25.164H0.468C1.092 25.164 1.584 25.068 1.944 24.876C2.304 24.66 2.592 24.216 2.808 23.544L10.368 1.44H14.904L22.752 24.12C22.896 24.576 23.148 24.864 23.508 24.984C23.892 25.104 24.36 25.164 24.912 25.164H25.092V27H14.976V25.164H15.588C15.996 25.164 16.416 25.152 16.848 25.128C17.28 25.104 17.64 25.068 17.928 25.02C18.216 24.948 18.36 24.876 18.36 24.804L11.016 3.168ZM33.7984 0.467998V24.012C33.7984 24.516 34.0384 24.852 34.5184 25.02C34.9984 25.164 35.6224 25.236 36.3904 25.236H36.4264V27H26.8144V25.236H26.8864C27.6304 25.236 28.2424 25.164 28.7224 25.02C29.2264 24.852 29.4784 24.516 29.4784 24.012V3.816C29.4784 3.504 29.3944 3.264 29.2264 3.096C29.0584 2.904 28.8064 2.76 28.4704 2.664C28.1344 2.544 27.7024 2.436 27.1744 2.34L26.8144 2.268V0.467998H33.7984ZM50.4467 27.36C49.4627 27.36 48.5747 27.216 47.7827 26.928C46.9907 26.64 46.2707 26.196 45.6227 25.596C44.9747 24.996 44.3627 24.228 43.7867 23.292L43.9307 20.016C44.4587 21.12 45.0107 22.044 45.5867 22.788C46.1627 23.508 46.7987 24.06 47.4947 24.444C48.1907 24.828 48.9587 25.02 49.7987 25.02C50.5907 25.02 51.2747 24.852 51.8507 24.516C52.4507 24.156 52.9427 23.652 53.3267 23.004C53.7347 22.356 54.0347 21.588 54.2267 20.7C54.4427 19.788 54.5507 18.78 54.5507 17.676C54.5507 16.572 54.4427 15.588 54.2267 14.724C54.0347 13.86 53.7467 13.128 53.3627 12.528C52.9787 11.904 52.4987 11.436 51.9227 11.124C51.3707 10.788 50.7227 10.62 49.9787 10.62C49.1147 10.62 48.3227 10.824 47.6027 11.232C46.9067 11.616 46.2587 12.204 45.6587 12.996C45.0587 13.788 44.4707 14.772 43.8947 15.948L43.7867 13.032C44.4587 11.952 45.1307 11.064 45.8027 10.368C46.4747 9.648 47.2067 9.12 47.9987 8.784C48.7907 8.448 49.7147 8.28 50.7707 8.28C52.4267 8.28 53.8667 8.676 55.0907 9.468C56.3387 10.236 57.3107 11.328 58.0067 12.744C58.7027 14.136 59.0507 15.78 59.0507 17.676C59.0507 19.572 58.6907 21.252 57.9707 22.716C57.2507 24.156 56.2427 25.296 54.9467 26.136C53.6747 26.952 52.1747 27.36 50.4467 27.36ZM40.4387 3.816C40.4387 3.504 40.3547 3.264 40.1867 3.096C40.0427 2.904 39.8027 2.76 39.4667 2.664C39.1307 2.544 38.6867 2.436 38.1347 2.34L37.7747 2.268V0.467998H44.7947V22.824L44.2907 23.22L43.1387 27.108H40.4387V3.816ZM66.4062 17.928C66.4062 19.08 66.5382 20.112 66.8022 21.024C67.0902 21.912 67.4862 22.668 67.9902 23.292C68.4942 23.892 69.0942 24.348 69.7902 24.66C70.4862 24.972 71.2662 25.128 72.1302 25.128C73.0662 25.128 73.8702 24.948 74.5422 24.588C75.2382 24.228 75.8262 23.772 76.3062 23.22C76.8102 22.668 77.2302 22.104 77.5662 21.528L79.3662 23.004C78.8862 23.82 78.2982 24.564 77.6022 25.236C76.9062 25.908 76.0782 26.436 75.1182 26.82C74.1582 27.18 73.0302 27.36 71.7342 27.36C69.8622 27.36 68.1942 26.976 66.7302 26.208C65.2662 25.44 64.1142 24.348 63.2742 22.932C62.4582 21.492 62.0502 19.812 62.0502 17.892C62.0502 15.972 62.4462 14.292 63.2382 12.852C64.0302 11.412 65.1102 10.296 66.4782 9.504C67.8462 8.688 69.3822 8.28 71.0862 8.28C72.4542 8.28 73.6542 8.496 74.6862 8.928C75.7422 9.36 76.6302 10.008 77.3502 10.872C78.0702 11.712 78.6102 12.78 78.9702 14.076C79.3542 15.348 79.5462 16.848 79.5462 18.576H65.6502L65.6142 16.488H76.1982L75.2262 17.316C75.2022 16.092 75.1062 15.048 74.9382 14.184C74.7702 13.32 74.5182 12.612 74.1822 12.06C73.8462 11.508 73.4262 11.1 72.9222 10.836C72.4182 10.572 71.8182 10.44 71.1222 10.44C70.4502 10.44 69.8262 10.608 69.2502 10.944C68.6982 11.256 68.2062 11.736 67.7742 12.384C67.3422 13.008 67.0062 13.788 66.7662 14.724C66.5262 15.66 66.4062 16.728 66.4062 17.928ZM95.2259 8.424V12.42C95.0579 12.348 94.8539 12.3 94.6139 12.276C94.3739 12.228 94.1339 12.192 93.8939 12.168C93.6539 12.144 93.4139 12.132 93.1739 12.132C92.5499 12.132 91.9979 12.216 91.5179 12.384C91.0619 12.528 90.6419 12.756 90.2579 13.068C89.8979 13.38 89.5619 13.788 89.2499 14.292C88.9379 14.772 88.6139 15.36 88.2779 16.056L88.2419 13.896C88.6019 12.792 89.0339 11.82 89.5379 10.98C90.0659 10.14 90.6899 9.492 91.4099 9.036C92.1299 8.556 92.9819 8.316 93.9659 8.316C94.2299 8.316 94.4699 8.328 94.6859 8.352C94.9259 8.352 95.1059 8.376 95.2259 8.424ZM81.9419 27V25.236H82.0139C82.7579 25.236 83.3699 25.164 83.8499 25.02C84.3539 24.852 84.6059 24.516 84.6059 24.012V11.988C84.6059 11.652 84.5219 11.4 84.3539 11.232C84.1859 11.064 83.9219 10.932 83.5619 10.836C83.2259 10.716 82.8059 10.608 82.3019 10.512L81.9419 10.44V8.64H88.5659V14.076L88.9259 13.716V24.264C88.9259 24.552 89.0819 24.768 89.3939 24.912C89.7059 25.056 90.0659 25.152 90.4739 25.2C90.9059 25.224 91.2899 25.236 91.6259 25.236H92.1659V27H81.9419ZM96.7911 10.764V8.784H96.9711C97.6191 8.784 98.1831 8.736 98.6631 8.64C99.1431 8.544 99.5031 8.364 99.7431 8.1C99.9831 7.836 100.115 7.464 100.139 6.984L102.767 8.64H109.247V10.764H96.7911ZM104.135 20.844C104.135 21.852 104.255 22.668 104.495 23.292C104.759 23.892 105.119 24.336 105.575 24.624C106.031 24.888 106.571 25.02 107.195 25.02C107.699 25.02 108.155 24.972 108.563 24.876C108.995 24.756 109.343 24.66 109.607 24.588V26.784C109.391 26.88 109.115 26.964 108.779 27.036C108.467 27.132 108.107 27.204 107.699 27.252C107.315 27.324 106.883 27.36 106.403 27.36C105.227 27.36 104.135 27.168 103.127 26.784C102.119 26.4 101.315 25.74 100.715 24.804C100.115 23.844 99.8151 22.536 99.8151 20.88V9.18L100.103 8.928L100.175 3.636H104.135V20.844Z" fill="#1C1E53" fill-opacity="0.898039"/>
</svg>
